<svg width="36" height="35" viewBox="0 0 36 35" fill="none" xmlns="http://www.w3.org/2000/svg">
<path d="M32.0001 21.2917L31.4653 21C31.2709 20.9028 31.1737 20.7083 31.2223 20.5139C31.3681 19.5903 31.4653 16.3819 26.507 14.9236C26.4098 14.875 26.3126 14.875 26.2153 14.875L16.6876 14.9236C16.4931 14.9236 16.2987 14.9722 16.1528 15.0694L11.1459 18.4236C11.0487 18.4722 10.9515 18.5208 10.8542 18.5208C9.93062 18.4722 9.05562 18.5694 8.13201 18.7153C5.50701 19.25 4.43756 20.6597 4.04867 21.3889C3.95145 21.5347 3.95145 21.7292 3.95145 21.875C4.00006 23.0417 3.22228 24.3542 4.38895 25.4236L13.8195 25.375L23.7362 25.1319L31.5626 25.0347C32.0001 24.9861 32.7292 24.3542 32.9237 23.9653C33.7501 22.6528 32.0973 21.3403 32.0001 21.2917Z" fill="#D0CFCE"/>
<path d="M8.90978 22.4583C7.84033 22.4583 6.96533 23.3333 6.96533 24.4027C6.96533 25.4721 7.84033 26.3471 8.90978 26.3471C9.97922 26.3471 10.8542 25.4721 10.8542 24.4027C10.8542 23.3333 9.97922 22.4583 8.90978 22.4583ZM28.257 22.4583C27.1876 22.4583 26.3126 23.3333 26.3126 24.4027C26.3126 25.4721 27.1876 26.3471 28.257 26.3471C29.3264 26.3471 30.2014 25.4721 30.2014 24.4027C30.2014 23.3333 29.3264 22.4583 28.257 22.4583Z" fill="#9B9B9A"/>
<path d="M27.7709 19.007V16.9167C27.7709 16.4792 27.382 16.0903 26.9445 16.0903H16.6389C16.5903 16.0903 16.5417 16.0903 16.5417 16.1389L12.6528 18.9098C12.5556 18.9584 12.5556 19.1042 12.6042 19.2014C12.6528 19.2501 12.7014 19.2987 12.75 19.2987C15.4723 19.2987 25.9723 19.2014 27.5278 19.2501C27.6736 19.2501 27.7709 19.1528 27.7709 19.007C27.7709 19.0556 27.7709 19.0556 27.7709 19.007Z" fill="#3F3F3F"/>
<path d="M4.82628 19.5903L6.77072 20.3681L5.74989 21.7778L3.31934 21.8264L4.82628 19.5903Z" fill="#FCEA2B"/>
<path d="M17.4651 14.1945C17.4651 14.1945 17.4165 13.1737 18.6318 13.1251C19.7984 13.0765 19.7984 14.1945 19.7984 14.1945" fill="#92D3F5"/>
<path d="M17.4651 14.1945C17.4651 14.1945 17.4165 13.1737 18.6318 13.1251C19.7984 13.0765 19.7984 14.1945 19.7984 14.1945" stroke="#FF8A00" stroke-miterlimit="10" stroke-linecap="round" stroke-linejoin="round"/>
<path d="M23.6387 24.6944L13.6248 24.8889M4.43734 24.8889C3.99984 24.7917 3.61095 24.6458 3.56234 24.4028C3.51373 23.9167 3.4165 22.5556 3.4165 21.9236C3.4165 21.6806 3.46512 21.3889 3.61095 21.1944C4.14567 20.2222 5.94428 17.8889 10.854 18.0833L15.8609 14.7292C16.104 14.5833 16.3957 14.4861 16.6387 14.4861L26.1665 14.4375C26.3123 14.4375 26.4582 14.4375 26.604 14.4861C27.6734 14.7778 32.2915 16.4306 31.6596 20.6111L32.1943 20.9028C32.4373 21 32.6318 21.2431 32.6804 21.4861C32.8748 22.1667 32.8262 22.8958 32.5832 23.5764" stroke="#FF8A00" stroke-linecap="round" stroke-linejoin="round"/>
<path d="M12.604 19.2986L27.2846 19.2014V17.0139" stroke="#FF8A00" stroke-linecap="round" stroke-linejoin="round"/>
<path d="M8.90956 26.8335C10.2519 26.8335 11.3401 25.7453 11.3401 24.403C11.3401 23.0606 10.2519 21.9724 8.90956 21.9724C7.5672 21.9724 6.479 23.0606 6.479 24.403C6.479 25.7453 7.5672 26.8335 8.90956 26.8335Z" stroke="#FF8A00" stroke-linecap="round" stroke-linejoin="round"/>
<path d="M28.2567 26.8335C29.5991 26.8335 30.6873 25.7453 30.6873 24.403C30.6873 23.0606 29.5991 21.9724 28.2567 21.9724C26.9144 21.9724 25.8262 23.0606 25.8262 24.403C25.8262 25.7453 26.9144 26.8335 28.2567 26.8335Z" stroke="#FF8A00" stroke-linecap="round" stroke-linejoin="round"/>
<path d="M6.47879 20.7571L5.60379 21.8265L3.80518 21.7779" stroke="#FF8A00" stroke-linecap="round" stroke-linejoin="round"/>
<path d="M12.2153 21H24.8542" stroke="#FF8A00" stroke-miterlimit="10" stroke-linecap="round" stroke-linejoin="round"/>
<path d="M12.2153 21H24.8542" stroke="#61B2E4" stroke-width="2.1" stroke-miterlimit="10" stroke-linecap="round" stroke-linejoin="round"/>
</svg>
