<svg width="25" height="35" viewBox="0 0 25 35" fill="none" xmlns="http://www.w3.org/2000/svg">
<mask id="mask0_97_42" style="mask-type:luminance" maskUnits="userSpaceOnUse" x="0" y="0" width="25" height="35">
<path d="M9.65309 33.2803L1.67926 21.6516C0.106913 19.3587 0.106913 15.6411 1.67926 13.3481L9.653 1.71976C11.2253 -0.573252 13.7745 -0.573252 15.3468 1.71976L23.3205 13.3481C24.8929 15.6411 24.8929 19.3587 23.3205 21.6516L15.3468 33.2803C13.7745 35.5732 11.2253 35.5732 9.65309 33.2803Z" fill="white"/>
</mask>
<g mask="url(#mask0_97_42)">
<path d="M23.6799 13.9523C23.5717 13.7458 23.457 13.5445 23.3274 13.3555L20.5159 9.2553C14.9092 12.8784 3.75982 13.6287 1.28498 13.7499C1.29457 13.7332 0.494001 15.9101 0.501812 15.8711C3.64002 16.0965 18.9598 16.988 23.6799 13.9523ZM3.53001 10.5352C6.51915 10.4019 13.1943 9.61446 18.0452 5.43193L15.3233 1.56724C13.7332 -0.829109 11.1023 -0.674439 9.51214 1.72205L3.53001 10.5352ZM9.51092 33.2947C11.0832 35.5876 13.6631 35.906 15.4334 33.354L18.2434 29.256C13.5612 25.253 6.82227 24.8201 3.75379 24.8971L9.51092 33.2947ZM0.267578 18.641L1.30954 21.5666C4.43956 21.7164 14.0018 22.4133 20.6637 25.5437L23.3274 21.6589C23.5332 21.3575 23.7161 21.0244 23.8727 20.6655C19.3489 17.4461 3.57885 18.4229 0.588203 18.6409" fill="#F4922E"/>
</g>
</svg>
