<svg width="36" height="35" viewBox="0 0 36 35" fill="none" xmlns="http://www.w3.org/2000/svg">
<path d="M31.125 10.9375H4.875C4.29502 10.9369 3.73895 10.7063 3.32884 10.2962C2.91873 9.88605 2.68808 9.32998 2.6875 8.75V4.375C2.68808 3.79502 2.91873 3.23895 3.32884 2.82884C3.73895 2.41873 4.29502 2.18808 4.875 2.1875H31.125C31.705 2.18808 32.261 2.41873 32.6712 2.82884C33.0813 3.23895 33.3119 3.79502 33.3125 4.375V8.75C33.3119 9.32998 33.0813 9.88605 32.6712 10.2962C32.261 10.7063 31.705 10.9369 31.125 10.9375ZM4.875 4.375V8.75H31.125V4.375H4.875ZM31.125 32.8125H4.875C4.29502 32.8119 3.73895 32.5813 3.32884 32.1712C2.91873 31.761 2.68808 31.205 2.6875 30.625V26.25C2.68808 25.67 2.91873 25.114 3.32884 24.7038C3.73895 24.2937 4.29502 24.0631 4.875 24.0625H31.125C31.705 24.0631 32.261 24.2937 32.6712 24.7038C33.0813 25.114 33.3119 25.67 33.3125 26.25V30.625C33.3119 31.205 33.0813 31.761 32.6712 32.1712C32.261 32.5813 31.705 32.8119 31.125 32.8125ZM4.875 26.25V30.625H31.125V26.25H4.875ZM31.125 21.875H4.875C4.29502 21.8744 3.73895 21.6438 3.32884 21.2337C2.91873 20.8235 2.68808 20.2675 2.6875 19.6875V15.3125C2.68808 14.7325 2.91873 14.1765 3.32884 13.7663C3.73895 13.3562 4.29502 13.1256 4.875 13.125H31.125C31.705 13.1256 32.261 13.3562 32.6712 13.7663C33.0813 14.1765 33.3119 14.7325 33.3125 15.3125V19.6875C33.3119 20.2675 33.0813 20.8235 32.6712 21.2337C32.261 21.6438 31.705 21.8744 31.125 21.875ZM4.875 15.3125V19.6875H31.125V15.3125H4.875Z" fill="#FF8A00"/>
</svg>
