<svg width="36" height="35" viewBox="0 0 36 35" fill="none" xmlns="http://www.w3.org/2000/svg">
<g clip-path="url(#clip0_6_369)">
<path fill-rule="evenodd" clip-rule="evenodd" d="M19.3999 0.825082C19.0929 0.743337 18.7661 0.786646 18.491 0.945514C18.2159 1.10438 18.015 1.36584 17.9324 1.67258L12.0999 23.4426C12.0182 23.7499 12.0619 24.0771 12.2213 24.3522C12.3806 24.6274 12.6427 24.828 12.9499 24.9101L28.1574 28.9851C28.4647 29.0667 28.7919 29.0231 29.067 28.8637C29.3422 28.7043 29.5428 28.4423 29.6249 28.1351L35.4624 6.36758C35.5032 6.21525 35.5136 6.05636 35.4929 5.90001C35.4723 5.74367 35.421 5.59292 35.3421 5.45639C35.2631 5.31987 35.1581 5.20024 35.0329 5.10436C34.9077 5.00847 34.7648 4.93821 34.6124 4.89758L19.3999 0.825082ZM9.08239 22.6326L13.0724 7.74508L1.38989 10.8726C1.23751 10.9132 1.09463 10.9835 0.96942 11.0794C0.844212 11.1752 0.739132 11.2949 0.66019 11.4314C0.581247 11.5679 0.529989 11.7187 0.509347 11.875C0.488705 12.0314 0.499084 12.1902 0.539891 12.3426L6.37739 34.1101C6.45947 34.4173 6.66012 34.6793 6.93527 34.8387C7.21042 34.9981 7.53758 35.0417 7.84489 34.9601L23.0549 30.8851C23.0742 30.8798 23.0934 30.8739 23.1124 30.8676L12.1374 27.9301C11.5885 27.783 11.074 27.5292 10.6233 27.1833C10.1725 26.8373 9.79436 26.4058 9.51041 25.9136C9.22647 25.4214 9.0423 24.8781 8.96843 24.3147C8.89456 23.7513 8.93243 23.1788 9.07989 22.6301L9.08239 22.6326Z" fill="#FFCC4D"/>
</g>
<defs>
<clipPath id="clip0_6_369">
<rect width="35" height="35" fill="white" transform="translate(0.5)"/>
</clipPath>
</defs>
</svg>
