<svg width="106" height="105" viewBox="0 0 106 105" fill="none" xmlns="http://www.w3.org/2000/svg">
<path d="M48.7454 86.816L46.2514 99.6672L41.1059 98.6686C40.1605 98.4851 39.3991 98.192 38.8219 97.7891C38.2446 97.3862 37.8453 96.905 37.6239 96.3455C37.4018 95.7902 37.3533 95.1904 37.4783 94.5462C37.5757 94.0442 37.7618 93.6223 38.0364 93.2806C38.3103 92.9431 38.6465 92.6871 39.045 92.5126C39.4385 92.3416 39.8687 92.2493 40.3358 92.2357L40.3602 92.1102C39.8748 91.9943 39.4435 91.7674 39.0664 91.4294C38.685 91.0906 38.4051 90.6651 38.2267 90.153C38.0474 89.6451 38.0191 89.0753 38.1417 88.4436C38.274 87.7617 38.5616 87.1859 39.0043 86.7162C39.4421 86.2499 40.0194 85.9257 40.7363 85.7436C41.4531 85.5615 42.2927 85.5638 43.2548 85.7505L48.7454 86.816ZM45.5973 88.5101L43.3822 88.0802C42.625 87.9333 42.0448 87.9704 41.6416 88.1917C41.2375 88.4171 40.9884 88.7725 40.8942 89.2578C40.8252 89.6133 40.8501 89.9437 40.9689 90.2489C41.0876 90.5541 41.2909 90.815 41.5788 91.0315C41.8625 91.2471 42.2219 91.3972 42.657 91.4816L44.9348 91.9237L45.5973 88.5101ZM44.578 93.7622L42.5637 93.3713C42.1914 93.2991 41.8483 93.2998 41.5345 93.3734C41.2157 93.4505 40.9491 93.5941 40.7347 93.8042C40.5161 94.0136 40.3739 94.2877 40.3081 94.6265C40.218 95.0909 40.3106 95.4974 40.5859 95.846C40.857 96.1937 41.2937 96.4261 41.8961 96.543L43.9606 96.9436L44.578 93.7622Z" fill="#CC4646"/>
<path d="M39.9399 84.6394L34.1877 96.3989L26.2639 92.5229L27.2666 90.473L32.7042 93.1328L34.0748 90.3308L29.0449 87.8704L30.0476 85.8205L35.0775 88.2809L36.451 85.4731L30.9904 82.8021L31.9931 80.7522L39.9399 84.6394Z" fill="#CC4646"/>
<path d="M20.5199 82.5966C20.2192 83.0185 20.1208 83.4646 20.225 83.9347C20.3291 84.4049 20.6315 84.8587 21.132 85.2961C21.4722 85.5933 21.8014 85.7962 22.1198 85.9046C22.4354 86.0162 22.7286 86.0433 22.9996 85.9858C23.2673 85.9255 23.4937 85.7895 23.6788 85.5777C23.8394 85.4068 23.9371 85.2205 23.9719 85.0189C24.0034 84.8144 23.989 84.6009 23.9287 84.3785C23.8657 84.1593 23.7703 83.9316 23.6427 83.6956C23.5122 83.4628 23.3606 83.2284 23.1876 82.9924L22.4871 82.0067C22.1412 81.5347 21.8587 81.0614 21.6395 80.5869C21.4203 80.1124 21.2815 79.6431 21.2231 79.1789C21.1646 78.7147 21.202 78.2607 21.3352 77.8169C21.4652 77.3702 21.7081 76.9401 22.0638 76.5266C22.5941 75.9261 23.2052 75.5377 23.897 75.3612C24.5828 75.1852 25.3178 75.2248 26.1021 75.4801C26.8804 75.7357 27.6706 76.214 28.4728 76.915C29.2686 77.6104 29.8552 78.3381 30.2325 79.0979C30.6066 79.8549 30.75 80.6168 30.6627 81.3838C30.5694 82.1511 30.2209 82.8964 29.6173 83.6195L27.6005 81.8572C27.8669 81.5071 28.0134 81.1484 28.04 80.7812C28.0606 80.4144 27.9788 80.0514 27.7945 79.6924C27.6043 79.3337 27.3295 78.9973 26.9701 78.6833C26.6171 78.3748 26.2658 78.1584 25.9162 78.034C25.5633 77.9067 25.2348 77.8714 24.9305 77.9282C24.6263 77.9849 24.3705 78.132 24.163 78.3694C23.9695 78.5908 23.8726 78.8344 23.8724 79.1002C23.869 79.3632 23.9461 79.657 24.1039 79.9816C24.2584 80.3034 24.4775 80.6646 24.7612 81.0653L25.599 82.2728C26.2535 83.2012 26.6335 84.0907 26.7391 84.9413C26.8446 85.7919 26.5776 86.58 25.9378 87.3056C25.4195 87.9052 24.805 88.2879 24.0944 88.4535C23.3805 88.6163 22.6318 88.5761 21.8484 88.3329C21.0649 88.0897 20.3138 87.654 19.595 87.0259C18.8634 86.3866 18.3342 85.7034 18.0074 84.9765C17.6774 84.2467 17.5549 83.5256 17.6398 82.8132C17.7247 82.1008 18.0189 81.4467 18.5224 80.8511L20.5199 82.5966Z" fill="#CC4646"/>
<path d="M16.7414 80.359L14.8347 81.6127L8.92802 72.6291L10.8348 71.3754L13.0366 74.7242L22.0682 68.786L23.5712 71.0719L14.5396 77.0102L16.7414 80.359Z" fill="#CC4646"/>
<path d="M18.9702 60.5782L6.03785 62.6094L5.22458 57.4314C5.07515 56.48 5.09154 55.6643 5.27375 54.9844C5.45597 54.3044 5.77243 53.7651 6.22314 53.3665C6.66964 52.9685 7.21704 52.7186 7.86534 52.6168C8.37051 52.5374 8.83051 52.5687 9.24534 52.7106C9.65595 52.8532 10.0111 53.0821 10.3108 53.3974C10.6057 53.7091 10.839 54.0822 11.0107 54.5168L11.137 54.497C11.0807 54.0011 11.1472 53.5183 11.3366 53.0486C11.5253 52.5747 11.83 52.1666 12.2508 51.8245C12.6673 51.483 13.1934 51.2623 13.8291 51.1625C14.5153 51.0547 15.1546 51.129 15.747 51.3853C16.3345 51.6381 16.836 52.0706 17.2513 52.6826C17.6666 53.2946 17.9503 54.0847 18.1024 55.0529L18.9702 60.5782ZM16.3054 58.1951L15.9553 55.966C15.8356 55.2041 15.6031 54.6712 15.2577 54.3674C14.9082 54.0643 14.4892 53.9511 14.0009 54.0278C13.6431 54.084 13.3409 54.2198 13.0944 54.4354C12.8478 54.651 12.6718 54.931 12.5663 55.2754C12.4601 55.6156 12.4414 56.0046 12.5102 56.4424L12.8702 58.7346L16.3054 58.1951ZM11.02 59.0252L10.7017 56.9982C10.6428 56.6236 10.5253 56.3012 10.3492 56.0313C10.1682 55.7577 9.94242 55.5559 9.67181 55.4259C9.40053 55.2917 9.0944 55.2513 8.75341 55.3049C8.28613 55.3783 7.93547 55.6037 7.70144 55.9812C7.46675 56.3546 7.39701 56.8443 7.49222 57.4505L7.81852 59.5281L11.02 59.0252Z" fill="#CC4646"/>
<path d="M18.0182 51.5576L5.0028 50.1536L5.55673 45.0186C5.66276 44.0357 5.92908 43.2157 6.35568 42.5588C6.77851 41.8973 7.32945 41.4188 8.00851 41.1234C8.68379 40.8234 9.45146 40.7198 10.3115 40.8125C11.1758 40.9058 11.8993 41.1724 12.4819 41.6124C13.0602 42.052 13.4765 42.6434 13.7306 43.3865C13.9852 44.1255 14.0586 44.9949 13.9507 45.9948L13.5798 49.4329L11.3682 49.1944L11.6911 46.2011C11.7478 45.6757 11.7229 45.2316 11.6163 44.8686C11.5097 44.5057 11.3215 44.2239 11.0517 44.0234C10.7823 43.8186 10.4337 43.6931 10.0058 43.6469C9.57362 43.6003 9.19989 43.6479 8.88458 43.7896C8.56972 43.9271 8.31707 44.1634 8.12661 44.4986C7.93237 44.8291 7.80669 45.2592 7.74956 45.7888L7.54938 47.6445L18.315 48.8058L18.0182 51.5576ZM12.8534 43.8898L19.1254 41.294L18.7977 44.3317L12.5332 46.8577L12.8534 43.8898Z" fill="#CC4646"/>
<path d="M20.2057 40.6059L19.0886 43.3534L8.66398 34.2362L10.0074 30.9321L23.834 31.6825L22.7169 34.43L12.1261 33.6636L12.0876 33.7583L20.2057 40.6059ZM15.3693 38.8395L18.008 32.3497L20.0094 33.1635L17.3706 39.6532L15.3693 38.8395Z" fill="#CC4646"/>
<path d="M20.3298 16.74L30.5056 24.9756L29.0017 26.8339L19.0141 26.0775L18.9538 26.152L25.3584 31.3355L23.6172 33.4869L13.4414 25.2513L14.9695 23.3632L24.9239 24.1503L24.9963 24.0609L18.5967 18.8815L20.3298 16.74Z" fill="#CC4646"/>
<path d="M34.2066 23.3032L30.3665 25.9088L23.0162 15.0762L26.888 12.449C27.9776 11.7097 29.0628 11.2901 30.1434 11.1903C31.2217 11.0869 32.2463 11.2954 33.2174 11.8158C34.192 12.3338 35.0609 13.1552 35.8242 14.2801C36.5899 15.4085 37.0345 16.523 37.1581 17.6235C37.2853 18.7217 37.0993 19.7568 36.6002 20.7289C36.1047 21.6985 35.3068 22.5566 34.2066 23.3032ZM31.3253 22.3924L32.7799 21.4054C33.4569 20.946 33.945 20.4397 34.2443 19.8865C34.5446 19.3273 34.6389 18.7149 34.5271 18.0492C34.4164 17.3776 34.0871 16.6381 33.5392 15.8306C32.9961 15.0301 32.4341 14.4561 31.8533 14.1087C31.276 13.7588 30.6751 13.6207 30.0504 13.6944C29.4258 13.768 28.7749 14.0345 28.0979 14.4939L26.638 15.4845L31.3253 22.3924Z" fill="#CC4646"/>
<path d="M49.4988 18.0517L49.3974 4.96117L54.6388 4.92059C55.6018 4.91313 56.4061 5.04966 57.0518 5.33018C57.6975 5.6107 58.1842 6.00325 58.512 6.50783C58.8397 7.00815 59.0061 7.58643 59.0112 8.24266C59.0152 8.75401 58.9164 9.20436 58.7148 9.59371C58.5133 9.97881 58.2345 10.2963 57.8784 10.5462C57.5266 10.7919 57.1232 10.9676 56.668 11.0734L56.669 11.2012C57.1677 11.2187 57.6354 11.3557 58.0721 11.6122C58.513 11.8688 58.8716 12.2304 59.148 12.697C59.4243 13.1594 59.5649 13.7123 59.5699 14.3557C59.5753 15.0503 59.4075 15.6716 59.0666 16.2197C58.7299 16.7636 58.2282 17.1957 57.5617 17.5162C56.8951 17.8367 56.0718 18.0008 55.0917 18.0084L49.4988 18.0517ZM52.2489 15.7675L54.5053 15.7501C55.2766 15.7441 55.8379 15.5927 56.1893 15.296C56.5407 14.9949 56.7145 14.5973 56.7106 14.103C56.7078 13.7408 56.618 13.4219 56.4411 13.1462C56.2643 12.8706 56.0133 12.6552 55.6882 12.5C55.3674 12.3449 54.9854 12.269 54.5423 12.2724L52.222 12.2904L52.2489 15.7675ZM52.2075 10.4176L54.2593 10.4017C54.6386 10.3987 54.9747 10.3301 55.2677 10.1957C55.5649 10.057 55.7978 9.86347 55.9663 9.615C56.1391 9.36649 56.2242 9.06966 56.2215 8.7245C56.2179 8.2515 56.0466 7.87142 55.7077 7.58427C55.3731 7.29708 54.899 7.15586 54.2854 7.16061L52.1824 7.17689L52.2075 10.4176Z" fill="white"/>
<path d="M58.5609 18.4405L61.8694 5.77458L70.4041 8.00394L69.8274 10.2118L63.9706 8.68196L63.1823 11.7L68.5999 13.1152L68.0232 15.3231L62.6055 13.9079L61.8156 16.9321L67.6971 18.4685L67.1203 20.6763L58.5609 18.4405Z" fill="white"/>
<path d="M78.0004 16.5954C78.2116 16.1223 78.2196 15.6656 78.0244 15.2254C77.8292 14.7852 77.4429 14.4003 76.8656 14.0707C76.4733 13.8467 76.1104 13.7131 75.7769 13.6699C75.4455 13.623 75.1526 13.6546 74.8985 13.7646C74.648 13.8768 74.453 14.055 74.3136 14.2992C74.1899 14.4986 74.1311 14.7005 74.137 14.905C74.1466 15.1117 74.203 15.3181 74.3061 15.5242C74.4114 15.7266 74.5499 15.9308 74.7218 16.1369C74.8958 16.3392 75.0909 16.539 75.3071 16.736L76.1891 17.5634C76.6216 17.9575 76.9923 18.3654 77.3011 18.7871C77.61 19.2088 77.839 19.6413 77.9883 20.0847C78.1375 20.5281 78.1908 20.9805 78.1482 21.442C78.1092 21.9055 77.9564 22.3752 77.6897 22.851C77.2888 23.5446 76.7667 24.0464 76.1236 24.3564C75.4863 24.6648 74.758 24.7716 73.9387 24.6768C73.1252 24.5804 72.2559 24.2681 71.3307 23.7399C70.4129 23.216 69.6938 22.619 69.1735 21.949C68.6568 21.2811 68.3653 20.5626 68.2989 19.7936C68.2383 19.023 68.4323 18.2235 68.8807 17.395L71.2066 18.7229C71.0149 19.1189 70.9424 19.4995 70.989 19.8647C71.0415 20.2283 71.1936 20.5678 71.4453 20.8833C71.7028 21.1972 72.0388 21.4724 72.4533 21.709C72.8604 21.9414 73.2476 22.084 73.615 22.1367C73.9861 22.1915 74.3151 22.161 74.602 22.0451C74.889 21.9293 75.1107 21.7344 75.267 21.4605C75.4128 21.2052 75.4595 20.9472 75.407 20.6867C75.3583 20.4282 75.2245 20.1556 75.0055 19.8686C74.7903 19.5838 74.504 19.2731 74.1465 18.9366L73.0861 17.919C72.2607 17.1387 71.712 16.3421 71.44 15.5293C71.168 14.7165 71.2737 13.8911 71.757 13.0531C72.1462 12.3627 72.6727 11.8659 73.3365 11.5628C74.0039 11.2617 74.7457 11.1528 75.5618 11.236C76.378 11.3192 77.2005 11.5974 78.0295 12.0707C78.8733 12.5524 79.5273 13.1172 79.9916 13.765C80.4597 14.4149 80.7226 15.0975 80.7805 15.8126C80.8384 16.5277 80.6796 17.227 80.3041 17.9106L78.0004 16.5954Z" fill="white"/>
<path d="M82.1474 18.0401L83.7679 16.4335L91.3373 24.0689L89.7167 25.6754L86.8951 22.8292L79.2189 30.439L77.2928 28.4962L84.969 20.8863L82.1474 18.0401Z" fill="white"/>
<path d="M83.8813 37.8705L96.1549 33.3176L97.9512 38.1599C98.2965 39.0908 98.4129 39.9498 98.3004 40.737C98.1919 41.5226 97.8877 42.2036 97.3879 42.7799C96.8936 43.3587 96.2389 43.7993 95.4238 44.1016C94.6088 44.404 93.8244 44.4949 93.0707 44.3745C92.317 44.2542 91.6426 43.9248 91.0475 43.3866C90.4539 42.8523 89.9822 42.1137 89.6324 41.1708L88.4875 38.0844L90.5671 37.313L91.5564 39.9798C91.7416 40.4793 91.9802 40.8589 92.272 41.1188C92.5694 41.3812 92.9015 41.5353 93.2684 41.581C93.6408 41.6292 94.0288 41.5784 94.4323 41.4287C94.8398 41.2776 95.165 41.0638 95.4079 40.7873C95.6563 40.5134 95.8036 40.1815 95.8499 39.7916C95.9001 39.4003 95.8319 38.9529 95.6452 38.4495L94.996 36.6995L84.8439 40.4655L83.8813 37.8705Z" fill="white"/>
<path d="M86.6015 46.5234L99.6371 45.3211L100.111 50.4641C100.202 51.4485 100.104 52.305 99.8156 53.0334C99.5322 53.7656 99.087 54.3437 98.4799 54.7678C97.8774 55.1956 97.1455 55.4493 96.2841 55.5288C95.4184 55.6086 94.6565 55.4906 93.9983 55.1747C93.3443 54.8584 92.8192 54.3612 92.4228 53.6831C92.0269 53.0092 91.7827 52.1716 91.6904 51.1702L91.3728 47.7267L93.5878 47.5224L93.8643 50.5203C93.9128 51.0465 94.0253 51.4769 94.2016 51.8115C94.378 52.1462 94.6183 52.3851 94.9225 52.5282C95.2271 52.6756 95.5937 52.7295 96.0223 52.69C96.4551 52.65 96.812 52.5294 97.093 52.328C97.3744 52.1309 97.5752 51.8492 97.6955 51.4829C97.8204 51.1205 97.8584 50.674 97.8094 50.1436L97.638 48.285L86.8557 49.2795L86.6015 46.5234ZM93.183 53.016L87.5496 56.803L87.269 53.7605L92.9088 50.0436L93.183 53.016Z" fill="white"/>
<path d="M91.1822 68.4876C89.7816 68.2117 88.6423 67.7115 87.7644 66.987C86.8856 66.2666 86.2768 65.3996 85.9379 64.386C85.6024 63.3774 85.5462 62.3066 85.7694 61.1736C85.9943 60.0322 86.4553 59.0589 87.1524 58.2537C87.8496 57.4486 88.7414 56.8794 89.8277 56.5461C90.914 56.2129 92.1554 56.1838 93.5518 56.4589C94.9525 56.7348 96.0922 57.2329 96.9709 57.9533C97.8497 58.6736 98.4568 59.5381 98.7924 60.5467C99.1321 61.5561 99.1895 62.6315 98.9647 63.7729C98.7415 64.906 98.2813 65.8751 97.5841 66.6802C96.8903 67.4904 96.0002 68.0621 94.9139 68.3954C93.8268 68.7328 92.5829 68.7636 91.1822 68.4876ZM91.7246 65.7344C92.6319 65.9132 93.4238 65.928 94.1003 65.779C94.776 65.6341 95.323 65.3488 95.7413 64.923C96.1596 64.4973 96.4334 63.9562 96.5627 63.2998C96.692 62.6433 96.6439 62.0388 96.4183 61.4862C96.1927 60.9336 95.7952 60.4601 95.2258 60.0656C94.6555 59.6753 93.9167 59.3908 93.0095 59.2121C92.1022 59.0333 91.3107 59.0164 90.635 59.1613C89.9585 59.3103 89.4111 59.5977 88.9928 60.0235C88.5745 60.4492 88.3007 60.9903 88.1714 61.6467C88.0421 62.3032 88.0902 62.9077 88.3158 63.4603C88.5414 64.0129 88.9393 64.4843 89.5095 64.8746C90.079 65.2691 90.8173 65.5557 91.7246 65.7344Z" fill="white"/>
<path d="M82.2801 69.9217L84.4905 65.8413L96.001 72.0767L93.7723 76.1908C93.1451 77.3486 92.3748 78.2204 91.4613 78.8063C90.5515 79.3943 89.5458 79.6806 88.4442 79.6654C87.3406 79.654 86.1911 79.3245 84.9959 78.677C83.7968 78.0275 82.8892 77.2427 82.2731 76.3224C81.6548 75.406 81.3436 74.4014 81.3395 73.3087C81.3333 72.2197 81.6468 71.0907 82.2801 69.9217ZM85.2573 69.4044L84.4201 70.95C84.0303 71.6695 83.8299 72.3436 83.8188 72.9725C83.8094 73.6071 84.0075 74.1942 84.4131 74.7338C84.8204 75.2792 85.4531 75.7842 86.3111 76.2491C87.1617 76.7098 87.9247 76.9608 88.6003 77.0021C89.2738 77.047 89.8709 76.8931 90.3916 76.5403C90.9123 76.1875 91.3675 75.6514 91.7572 74.932L92.5975 73.3807L85.2573 69.4044Z" fill="white"/>
<path d="M82.7011 89.5186L80.7337 91.4654L74.7541 85.4223C74.0827 84.7438 73.6573 83.9897 73.4778 83.1601C73.2954 82.3335 73.3526 81.4916 73.6494 80.6344C73.9492 79.7802 74.4838 78.9724 75.2532 78.2111C76.0256 77.4468 76.8405 76.9193 77.6978 76.6285C78.5581 76.3408 79.4005 76.2925 80.2252 76.4836C81.0498 76.6748 81.7978 77.1097 82.4692 77.7882L88.4488 83.8313L86.4814 85.778L80.6682 79.903C80.3175 79.5486 79.9285 79.31 79.5013 79.1873C79.071 79.0675 78.6356 79.0697 78.195 79.1939C77.7544 79.3182 77.3448 79.5676 76.9661 79.9423C76.5845 80.3199 76.3307 80.7269 76.2049 81.1631C76.076 81.6024 76.0707 82.0363 76.1889 82.4648C76.3042 82.8963 76.5371 83.2893 76.8878 83.6437L82.7011 89.5186Z" fill="white"/>
<path d="M65.4588 94.2322L67.9345 92.9247C68.1488 93.2211 68.3914 93.4568 68.6622 93.6319C68.9349 93.8107 69.2274 93.931 69.5394 93.9927C69.8515 94.0543 70.1756 94.0566 70.5118 93.9996C70.8441 93.9446 71.1761 93.8295 71.5077 93.6543C72.1068 93.3379 72.5501 92.9134 72.8375 92.3809C73.127 91.8522 73.2449 91.2405 73.1913 90.546C73.1397 89.8551 72.9019 89.1084 72.4781 88.3058C72.0422 87.4806 71.5536 86.8519 71.0121 86.4199C70.4669 85.9897 69.8964 85.7489 69.3005 85.6974C68.7046 85.6458 68.1146 85.7743 67.5306 86.0827C67.2027 86.2559 66.9223 86.4594 66.6892 86.6934C66.4524 86.9293 66.2685 87.1878 66.1375 87.4691C66.0085 87.7541 65.9361 88.0549 65.9202 88.3717C65.9007 88.6905 65.9442 89.0193 66.0509 89.3581L63.5692 90.6543C63.3527 90.0892 63.2422 89.4921 63.2377 88.8632C63.2315 88.24 63.3406 87.6209 63.5652 87.0059C63.788 86.3967 64.1355 85.8228 64.6077 85.2843C65.0781 84.7515 65.6845 84.2891 66.4268 83.8971C67.4593 83.3518 68.5059 83.0978 69.5666 83.1352C70.6235 83.1746 71.6213 83.5127 72.56 84.1494C73.4949 84.7882 74.2947 85.7368 74.9594 86.9954C75.626 88.2577 75.9558 89.457 75.9487 90.5932C75.9416 91.7295 75.6535 92.7443 75.0843 93.6376C74.5172 94.5347 73.7249 95.252 72.7075 95.7893C72.0368 96.1435 71.3653 96.3777 70.6931 96.4918C70.017 96.6078 69.3612 96.6024 68.7255 96.4755C68.0918 96.3524 67.4982 96.1044 66.9447 95.7317C66.3875 95.3609 65.8922 94.8611 65.4588 94.2322Z" fill="white"/>
<path d="M65.0778 96.1079L65.5298 98.3446L54.9915 100.475L54.5394 98.2378L58.4678 97.4439L56.3265 86.8491L59.008 86.3072L61.1494 96.9019L65.0778 96.1079Z" fill="white"/>
</svg>
