<svg width="145" height="44" viewBox="0 0 145 44" fill="none" xmlns="http://www.w3.org/2000/svg">
<g clip-path="url(#clip0_5_60)">
<path fill-rule="evenodd" clip-rule="evenodd" d="M89.9552 34.4094C81.529 40.6633 69.3158 44 58.8004 44C44.0561 44 30.7825 38.5088 20.7405 29.3757C19.9515 28.6575 20.6584 27.6788 21.6052 28.2381C32.4425 34.5873 45.8424 38.4071 59.684 38.4071C69.0191 38.4071 79.2884 36.4622 88.7308 32.4264C90.1572 31.8163 91.3501 33.3671 89.9552 34.4094Z" fill="#FF9900"/>
<path fill-rule="evenodd" clip-rule="evenodd" d="M93.4582 30.3735C92.3852 28.988 86.3385 29.7189 83.6245 30.043C82.7976 30.1447 82.6714 29.4202 83.4162 28.899C88.232 25.4861 96.1344 26.4712 97.0559 27.6152C97.9774 28.7656 96.816 36.7419 92.2905 40.5489C91.5962 41.1336 90.9335 40.8222 91.2428 40.0468C92.259 37.4918 94.5375 31.7654 93.4582 30.3735Z" fill="#FF9900"/>
<path fill-rule="evenodd" clip-rule="evenodd" d="M83.8141 4.80477V1.48713C83.8141 0.985041 84.1928 0.648193 84.6472 0.648193H99.3978C99.8712 0.648193 100.25 0.991397 100.25 1.48713V4.3281C100.244 4.80477 99.8459 5.42762 99.139 6.41274L91.4955 17.4016C94.3358 17.3317 97.3339 17.7575 99.909 19.2193C100.49 19.5498 100.648 20.0328 100.692 20.5095V24.0496C100.692 24.5326 100.162 25.0983 99.6061 24.8059C95.0679 22.4098 89.0402 22.1493 84.0224 24.8313C83.5111 25.111 82.9746 24.5517 82.9746 24.0687V20.7065C82.9746 20.1663 82.9809 19.2447 83.5174 18.4249L92.3728 5.63736H84.6662C84.1928 5.63736 83.8141 5.30051 83.8141 4.80477Z" fill="black"/>
<path fill-rule="evenodd" clip-rule="evenodd" d="M30.006 25.5051H25.5184C25.0892 25.4733 24.7484 25.1492 24.7168 24.736V1.54439C24.7168 1.08043 25.1018 0.711796 25.5815 0.711796H29.7662C30.2017 0.73085 30.5489 1.06771 30.5804 1.48718V4.51882H30.6625C31.7544 1.58887 33.8057 0.222412 36.5703 0.222412C39.379 0.222412 41.1337 1.58887 42.396 4.51882C43.4816 1.58887 45.9495 0.222412 48.5942 0.222412C50.4751 0.222412 52.5327 1.00415 53.7888 2.7583C55.2089 4.70948 54.9186 7.54409 54.9186 10.0291L54.9122 24.6661C54.9122 25.1301 54.5272 25.5051 54.0475 25.5051H49.5662C49.1181 25.4733 48.7583 25.111 48.7583 24.6661V12.3744C48.7583 11.3956 48.8466 8.95504 48.632 8.02711C48.2975 6.46999 47.294 6.03145 45.9937 6.03145C44.9081 6.03145 43.772 6.76235 43.3112 7.93178C42.8505 9.10122 42.8947 11.0587 42.8947 12.3744V24.6661C42.8947 25.1301 42.5096 25.5051 42.0299 25.5051H37.5486C37.0942 25.4733 36.7407 25.111 36.7407 24.6661L36.7344 12.3744C36.7344 9.78762 37.1573 5.9806 33.9698 5.9806C30.7445 5.9806 30.8708 9.69228 30.8708 12.3744V24.6661C30.8708 25.1301 30.4857 25.5051 30.006 25.5051Z" fill="black"/>
<path fill-rule="evenodd" clip-rule="evenodd" d="M112.949 0.222412C119.608 0.222412 123.212 5.9806 123.212 13.3023C123.212 20.3761 119.229 25.9881 112.949 25.9881C106.41 25.9881 102.85 20.2299 102.85 13.0544C102.85 5.83442 106.454 0.222412 112.949 0.222412ZM112.987 4.95735C109.679 4.95735 109.471 9.49526 109.471 12.3235C109.471 15.1581 109.427 21.2087 112.949 21.2087C116.427 21.2087 116.591 16.3276 116.591 13.3531C116.591 11.3956 116.509 9.05673 115.922 7.20088C115.417 5.58656 114.413 4.95735 112.987 4.95735Z" fill="black"/>
<path fill-rule="evenodd" clip-rule="evenodd" d="M131.846 25.5051H127.378C126.93 25.4733 126.57 25.111 126.57 24.6661L126.563 1.46811C126.601 1.04229 126.974 0.711796 127.428 0.711796H131.588C131.979 0.73085 132.301 0.9978 132.389 1.36007V4.9065H132.471C133.727 1.73505 135.488 0.222412 138.587 0.222412C140.601 0.222412 142.564 0.95331 143.826 2.95533C145 4.81117 145 7.93178 145 10.1753V24.7742C144.95 25.1809 144.577 25.5051 144.135 25.5051H139.635C139.225 25.4733 138.884 25.1682 138.84 24.7742V12.1773C138.84 9.64144 139.13 5.92976 136.031 5.92976C134.939 5.92976 133.936 6.66701 133.437 7.7856C132.806 9.20291 132.724 10.6139 132.724 12.1773V24.6661C132.717 25.1301 132.326 25.5051 131.846 25.5051Z" fill="black"/>
<path fill-rule="evenodd" clip-rule="evenodd" d="M72.0552 14.4273C72.0552 16.1878 72.0993 17.6559 71.2157 19.2194C70.5025 20.4905 69.3664 21.2723 68.1103 21.2723C66.3872 21.2723 65.3773 19.9503 65.3773 17.9991C65.3773 14.1476 68.8046 13.4485 72.0552 13.4485V14.4273ZM76.5807 25.4415C76.284 25.7085 75.8548 25.7276 75.5203 25.5496C74.0307 24.3039 73.7593 23.7255 72.9451 22.537C70.4835 25.0666 68.7352 25.8229 65.5477 25.8229C61.767 25.8229 58.832 23.4777 58.832 18.7809C58.832 15.1137 60.8013 12.6159 63.6163 11.3956C66.0527 10.3152 69.4547 10.1245 72.0552 9.82579V9.24108C72.0552 8.16697 72.1372 6.89585 71.506 5.96793C70.9632 5.13534 69.9155 4.79214 68.9876 4.79214C67.2772 4.79214 65.756 5.67557 65.3836 7.50599C65.3079 7.91275 65.0112 8.31315 64.601 8.33222L60.2522 7.8619C59.8861 7.77928 59.4758 7.48056 59.5831 6.91492C60.5804 1.60162 65.3521 0 69.6188 0C71.8027 0 74.6556 0.584718 76.3787 2.24989C78.5626 4.30275 78.3543 7.04203 78.3543 10.0228V17.0648C78.3543 19.1813 79.2253 20.1092 80.0458 21.2532C80.3299 21.66 80.393 22.1493 80.0269 22.4544C79.1117 23.2234 77.4833 24.6535 76.587 25.4543L76.5807 25.4415Z" fill="black"/>
<path fill-rule="evenodd" clip-rule="evenodd" d="M13.2231 14.4273C13.2231 16.1878 13.2673 17.6559 12.3837 19.2194C11.6704 20.4905 10.5406 21.2723 9.27828 21.2723C7.55517 21.2723 6.5516 19.9503 6.5516 17.9991C6.5516 14.1476 9.97889 13.4485 13.2231 13.4485V14.4273ZM17.7487 25.4415C17.452 25.7085 17.0228 25.7276 16.6883 25.5496C15.1987 24.3039 14.9336 23.7255 14.1131 22.537C11.6515 25.0666 9.90946 25.8229 6.71571 25.8229C2.94127 25.8229 0 23.4777 0 18.7809C0 15.1137 1.97558 12.6159 4.78431 11.3956C7.22065 10.3152 10.6227 10.1245 13.2231 9.82579V9.24108C13.2231 8.16697 13.3052 6.89585 12.6803 5.96793C12.1312 5.13534 11.0834 4.79214 10.1619 4.79214C8.45144 4.79214 6.924 5.67557 6.5516 7.50599C6.47586 7.91275 6.17921 8.31315 5.77526 8.33222L1.42015 7.8619C1.05406 7.77928 0.65011 7.48056 0.751098 6.91492C1.75467 1.60162 6.52004 0 10.7868 0C12.9707 0 15.8236 0.584718 17.5467 2.24989C19.7306 4.30275 19.5223 7.04203 19.5223 10.0228V17.0648C19.5223 19.1813 20.3933 20.1092 21.2138 21.2532C21.5042 21.66 21.5673 22.1493 21.2012 22.4544C20.286 23.2234 18.6576 24.6535 17.7613 25.4543L17.7487 25.4415Z" fill="black"/>
</g>
<defs>
<clipPath id="clip0_5_60">
<rect width="145" height="44" fill="white"/>
</clipPath>
</defs>
</svg>
